<?xml version="1.0" encoding="UTF-8" standalone="no"?>
<svg
   xmlns:dc="http://purl.org/dc/elements/1.1/"
   xmlns:cc="http://creativecommons.org/ns#"
   xmlns:rdf="http://www.w3.org/1999/02/22-rdf-syntax-ns#"
   xmlns:svg="http://www.w3.org/2000/svg"
   xmlns="http://www.w3.org/2000/svg"
   xmlns:sodipodi="http://sodipodi.sourceforge.net/DTD/sodipodi-0.dtd"
   xmlns:inkscape="http://www.inkscape.org/namespaces/inkscape"
   viewBox="0 0 800 214.94"
   version="1.1"
   id="svg16"
   sodipodi:docname="cocon_logo.svg"
   inkscape:version="0.92.2 (5c3e80d, 2017-08-06)">
  <metadata
     id="metadata20">
    <rdf:RDF>
      <cc:Work
         rdf:about="">
        <dc:format>image/svg+xml</dc:format>
        <dc:type
           rdf:resource="http://purl.org/dc/dcmitype/StillImage" />
      </cc:Work>
    </rdf:RDF>
  </metadata>
  <sodipodi:namedview
     pagecolor="#ffffff"
     bordercolor="#666666"
     borderopacity="1"
     objecttolerance="10"
     gridtolerance="10"
     guidetolerance="10"
     inkscape:pageopacity="0"
     inkscape:pageshadow="2"
     inkscape:window-width="1377"
     inkscape:window-height="625"
     id="namedview18"
     showgrid="false"
     inkscape:zoom="0.445"
     inkscape:cx="400"
     inkscape:cy="107.47"
     inkscape:window-x="2539"
     inkscape:window-y="574"
     inkscape:window-maximized="0"
     inkscape:current-layer="svg16" />
  <defs
     id="defs4">
    <style
       id="style2">.cls-1,.cls-2{fill:#2a3b5b;}.cls-1{fill-rule:evenodd;}</style>
  </defs>
  <title
     id="title6">cocon_logo</title>
  <g
     id="Warstwa_2"
     data-name="Warstwa 2"
     style="fill:#ffffff;fill-opacity:1">
    <g
       id="Warstwa_1-2"
       data-name="Warstwa 1"
       style="fill:#ffffff;fill-opacity:1">
      <path
         class="cls-1"
         d="M730.42,103.64l-14,14L669.32,70.57l-31.19,31.19a13.58,13.58,0,0,0,0,19.09l37.54,37.53-14,14-37.54-37.54a33.39,33.39,0,0,1,0-47.12l45.2-45.2Zm-75.77,7.66,14-14c18.25,18.24,28.84,28.83,47.08,47.08l31.19-31.19a13.56,13.56,0,0,0,0-19.09L709.39,56.55l14-14L761,80.07a33.4,33.4,0,0,1,0,47.13l-45.21,45.2ZM641,214.94H800V55.9L744.1,0h-159V159Z"
         id="path8"
         style="fill:#ffffff;fill-opacity:1" />
      <path
         class="cls-1"
         d="M506.9,56.07v55L454.55,54.9H439V159.45h27.5V103l52.5,57.5H534.4V56.07ZM367.64,135.78c-15.59,0-27.06-12.21-27.06-28.39,0-16.47,11.47-28.23,27.06-28.23,15.29,0,26.47,11.62,26.47,28.23C394.11,123.72,382.93,135.78,367.64,135.78Zm0,25.44c31.76,0,55.14-22.94,55.14-53.83,0-31.17-23.38-53.67-55.14-53.67-32.06,0-55.74,23.23-55.74,53.67S335.58,161.22,367.64,161.22Zm-96.77-.45c21.18,0,32.06-7.94,35.89-10.43L294.7,128.28a31.84,31.84,0,0,1-20.15,7.06c-17.65,0-29.12-10.3-29.12-27.65,0-16.77,11.33-27.21,29-27.21a33.49,33.49,0,0,1,20.3,6.62L306.76,65c-3.83-2.5-15.3-10.29-35.89-10.29-32.49,0-54.11,23.82-54.11,53.09S238.52,160.77,270.87,160.77Zm-120-25c-15.59,0-27.06-12.21-27.06-28.39,0-16.47,11.47-28.23,27.06-28.23,15.29,0,26.47,11.62,26.47,28.23C177.35,123.72,166.17,135.78,150.88,135.78Zm0,25.44c31.76,0,55.14-22.94,55.14-53.83,0-31.17-23.38-53.67-55.14-53.67-32.06,0-55.74,23.23-55.74,53.67S118.82,161.22,150.88,161.22Zm-96.76-.45c21.17,0,32.05-7.94,35.88-10.43L77.94,128.28a31.84,31.84,0,0,1-20.15,7.06c-17.64,0-29.11-10.3-29.11-27.65,0-16.77,11.32-27.21,29-27.21A33.48,33.48,0,0,1,77.94,87.1L90,65c-3.83-2.5-15.3-10.29-35.88-10.29C21.62,54.75,0,78.57,0,107.84S21.76,160.77,54.12,160.77Z"
         id="path10"
         style="fill:#ffffff;fill-opacity:1" />
      <path
         class="cls-2"
         d="M514.28,188.72v5.55h7.82V214.5H529V194.27h7.9v-5.55Zm-9.7,0V214.5h6.88V188.72Zm-42.68,0V214.5h21.17v-5.37H468.78v-4.86h12.56v-5.36H468.78v-4.82H482.7v-5.37Zm-30.15,0L442,214.5h7.15l10.3-25.78h-7.07l-6.62,18.64-6.58-18.64Zm-18.54,0V214.5h18.05v-5.74H420.09v-20Zm-17.6,5.55a7.4,7.4,0,0,1,0,14.78,7.35,7.35,0,0,1-7.26-7.42A7.27,7.27,0,0,1,395.61,194.27Zm-.08-5.73c-8.16,0-14.25,5.55-14.25,13.05s6.09,13.2,14.25,13.2,14.26-5.66,14.26-13.2S403.69,188.54,395.53,188.54Zm-18.68,8.12,2.59-5.33a20.66,20.66,0,0,0-10.53-2.9c-6.35,0-10.53,3-10.53,7.87,0,9.11,13.88,6.47,13.88,10.84,0,1.36-1.28,2.1-3.31,2.1-2.75,0-6.85-1.62-9.55-3.9l-2.67,5.26a20.06,20.06,0,0,0,12.14,4.12c5.87,0,10.61-2.69,10.61-7.95,0-9.26-13.88-6.83-13.88-11.1,0-1.17,1.09-1.76,2.75-1.76C370.53,193.91,374.06,195.12,376.85,196.66ZM316,188.72V214.5h21.17v-5.37H322.89v-4.86h12.56v-5.36H322.89v-4.82H336.8v-5.37Zm-43.44,0,8.65,25.78h7.07l4.89-17.39,4.74,17.39H305l8.68-25.78h-7.07l-5,18.64-5-18.64H290l-5,18.64-5-18.64Z"
         id="path12"
         style="fill:#ffffff;fill-opacity:1" />
    </g>
  </g>
</svg>
