<?xml version="1.0" encoding="UTF-8" standalone="no"?>
<svg
   xmlns:dc="http://purl.org/dc/elements/1.1/"
   xmlns:cc="http://creativecommons.org/ns#"
   xmlns:rdf="http://www.w3.org/1999/02/22-rdf-syntax-ns#"
   xmlns:svg="http://www.w3.org/2000/svg"
   xmlns="http://www.w3.org/2000/svg"
   xmlns:sodipodi="http://sodipodi.sourceforge.net/DTD/sodipodi-0.dtd"
   xmlns:inkscape="http://www.inkscape.org/namespaces/inkscape"
   viewBox="0 0 366.93 85.04"
   version="1.1"
   id="svg42"
   sodipodi:docname="logo_dh.svg"
   inkscape:version="0.92.2 (5c3e80d, 2017-08-06)">
  <metadata
     id="metadata46">
    <rdf:RDF>
      <cc:Work
         rdf:about="">
        <dc:format>image/svg+xml</dc:format>
        <dc:type
           rdf:resource="http://purl.org/dc/dcmitype/StillImage" />
      </cc:Work>
    </rdf:RDF>
  </metadata>
  <sodipodi:namedview
     pagecolor="#ffffff"
     bordercolor="#666666"
     borderopacity="1"
     objecttolerance="10"
     gridtolerance="10"
     guidetolerance="10"
     inkscape:pageopacity="0"
     inkscape:pageshadow="2"
     inkscape:window-width="2560"
     inkscape:window-height="1377"
     id="namedview44"
     showgrid="false"
     inkscape:zoom="0.97021232"
     inkscape:cx="183.465"
     inkscape:cy="42.52"
     inkscape:window-x="1912"
     inkscape:window-y="-8"
     inkscape:window-maximized="1"
     inkscape:current-layer="svg42" />
  <defs
     id="defs4">
    <style
       id="style2">.cls-1{opacity:0.9;isolation:isolate;}.cls-2{fill:#3dddc0;}</style>
  </defs>
  <title
     id="title6">Zasób 7</title>
  <g
     id="Warstwa_2"
     data-name="Warstwa 2"
     style="fill:#ffffff;fill-opacity:1">
    <g
       id="Warstwa_1-2"
       data-name="Warstwa 1"
       style="fill:#ffffff;fill-opacity:1">
      <g
         class="cls-1"
         id="g38"
         style="fill:#ffffff;fill-opacity:1">
        <path
           class="cls-2"
           d="M8.4,53.54a4,4,0,0,0,2.62-1c1.05-.52,1.05-1.57,1.58-2.62h2.62a4,4,0,0,1-1.05,2.62,5.18,5.18,0,0,1-2.62,2.1,7.54,7.54,0,0,1-3.68,1A8.43,8.43,0,0,1,2.1,53C.52,51.44,0,48.82,0,46.72v-.53a15.16,15.16,0,0,1,1.05-4.72,7.7,7.7,0,0,1,2.62-3.15c1.58-.52,3.15-1,4.73-.52a7.32,7.32,0,0,1,4.72,1.57c1.58,1.05,2.1,2.62,2.1,4.72H12.6A2.88,2.88,0,0,0,11,41.47a4,4,0,0,0-2.62-1A4.77,4.77,0,0,0,4.72,42c-1,1.58-1.57,3.15-1,4.73v.52a15.51,15.51,0,0,0,1,4.73A4.77,4.77,0,0,0,8.4,53.54Z"
           id="path8"
           style="fill:#ffffff;fill-opacity:1" />
        <path
           class="cls-2"
           d="M27.3,40.42H25.72c-1.57,0-3.67,1-4.2,2.62v12.6H18.37V37.8h3.15v2.1c1.05-1.58,2.63-2.63,4.2-2.1H27.3Z"
           id="path10"
           style="fill:#ffffff;fill-opacity:1" />
        <path
           class="cls-2"
           d="M37.27,56.17a8.39,8.39,0,0,1-5.77-2.63,7.18,7.18,0,0,1-2.1-6.3v-.52A15.22,15.22,0,0,1,30.45,42a5.33,5.33,0,0,1,2.62-3.14,9.67,9.67,0,0,1,3.68-1.05c2.1,0,4.19.52,5.24,2.1a10,10,0,0,1,2.1,6.29v1.58H32A6,6,0,0,0,33.6,52a4.76,4.76,0,0,0,3.67,1.57c1,0,2.1,0,2.63-.52S41.47,52,42,51.44L44.09,53C43,55.12,40.42,56.17,37.27,56.17Zm0-16.27a4.53,4.53,0,0,0-3.15,1.57,4.76,4.76,0,0,0-1.57,3.67h8.92a9.8,9.8,0,0,0-1-3.67A4.53,4.53,0,0,0,37.27,39.9Z"
           id="path12"
           style="fill:#ffffff;fill-opacity:1" />
        <path
           class="cls-2"
           d="M58.79,55.64c0-.52-.52-1-.52-2.1-1.05,1.58-3.15,2.1-5.25,2.1a6,6,0,0,1-4.2-1.57,5.17,5.17,0,0,1,.52-7.88,10.61,10.61,0,0,1,5.78-1.57h2.62v-1a3.57,3.57,0,0,0-3.67-3.67c-1,0-2.1,0-2.63,1a2.75,2.75,0,0,0-1,2.1H47.77a4,4,0,0,1,1-2.62,5.23,5.23,0,0,1,2.62-2.1,7.86,7.86,0,0,1,3.68-.52,7.32,7.32,0,0,1,4.72,1.57c1,1.05,2.1,2.62,1.58,4.2V52a9,9,0,0,0,.52,3.67v.53H58.79Zm-4.72-2.1c1,0,2.1,0,2.62-.52a4.1,4.1,0,0,0,2.1-2.1V47.24h-2.1c-3.67,0-5.77,1-5.77,3.15a2.7,2.7,0,0,0,1,2.1C52,53,53,53.54,54.07,53.54Z"
           id="path14"
           style="fill:#ffffff;fill-opacity:1" />
        <path
           class="cls-2"
           d="M70.34,33.6v4.2h3.15v2.1H70.34v11a1.87,1.87,0,0,0,2.1,2.1H74v2.62c-.53,0-1.58.53-2.1.53a7.53,7.53,0,0,1-3.15-1.05,7.54,7.54,0,0,1-1-3.68v-11H64.57V37.8h3.15V33.6Z"
           id="path16"
           style="fill:#ffffff;fill-opacity:1" />
        <path
           class="cls-2"
           d="M84.51,56.17a8.39,8.39,0,0,1-5.77-2.63,7.24,7.24,0,0,1-2.1-6.3v-.52a15.51,15.51,0,0,1,1-4.73,5.4,5.4,0,0,1,2.62-3.14A9.67,9.67,0,0,1,84,37.8c2.1,0,4.2.52,5.25,2.1a10.07,10.07,0,0,1,2.1,6.29v1.58H79.27A6,6,0,0,0,80.84,52a4.76,4.76,0,0,0,3.67,1.57c1,0,2.1,0,2.63-.52s1.57-1.05,2.1-1.58L91.34,53A10.45,10.45,0,0,1,84.51,56.17ZM84,39.9a4.53,4.53,0,0,0-3.15,1.57,7.53,7.53,0,0,0-1,3.67h8.92a9.62,9.62,0,0,0-1-3.67A4.76,4.76,0,0,0,84,39.9Z"
           id="path18"
           style="fill:#ffffff;fill-opacity:1" />
        <path
           class="cls-2"
           d="M94.49,46.72a11.48,11.48,0,0,1,2.1-6.82,6.45,6.45,0,0,1,5.25-2.63c2.1,0,3.67.53,4.72,2.1V30.45h3.15V55.64h-3.15v-2.1c-1,1.58-3.15,2.1-5.25,2.1s-3.67-1-5.25-2.62a8.17,8.17,0,0,1-1.57-6.3Zm2.62,0a15.44,15.44,0,0,0,1,4.72A4.77,4.77,0,0,0,101.84,53c1.57,0,3.67-1.05,4.2-2.63V42.52c-.53-1.58-2.63-2.62-4.2-2.62a4.77,4.77,0,0,0-3.68,1.57A23.33,23.33,0,0,0,97.11,46.72Z"
           id="path20"
           style="fill:#ffffff;fill-opacity:1" />
        <path
           class="cls-2"
           d="M137.53,46.72c0,2.1-.52,4.72-2.1,6.3a6.57,6.57,0,0,1-10.5,0v2.1h-2.62V30.45h3.15V39.9a5,5,0,0,1,5.25-2.1c2.1,0,3.67,1.05,5.25,2.62a11.17,11.17,0,0,1,1.57,6.3Zm-3.15,0a15.22,15.22,0,0,0-1-4.73c-.52-1.05-2.1-1.57-3.67-1.57a4.16,4.16,0,0,0-4.2,2.62v7.88c.52,1.57,2.62,2.62,4.2,2.62A3.18,3.18,0,0,0,132.81,52,10.15,10.15,0,0,0,134.38,46.72Z"
           id="path22"
           style="fill:#ffffff;fill-opacity:1" />
        <path
           class="cls-2"
           d="M147,51.44l4.2-13.12h3.15l-7.35,20c-1,2.62-2.62,4.2-5.25,4.2h-1.57V59.84h1.05a4.75,4.75,0,0,0,2.62-.52c.53-.53,1-1.58,1.58-2.1l.52-1.58-6.3-17.84h3.15Z"
           id="path24"
           style="fill:#ffffff;fill-opacity:1" />
        <g
           id="Warstwa_2-2"
           data-name="Warstwa 2-2"
           style="fill:#ffffff;fill-opacity:1">
          <g
             id="Warstwa_1-2-2"
             data-name="Warstwa 1-2"
             style="fill:#ffffff;fill-opacity:1">
            <path
               class="cls-2"
               d="M291.86.52H232.55a.52.52,0,0,0-.53.53h0a.51.51,0,0,0,.53.52c22.57,5.78,36.74,28.35,31,50.92a42.21,42.21,0,0,1-31,31L232,84a.51.51,0,0,0,.53.52h59.31a.52.52,0,0,0,.53-.52h0L291.86.52Z"
               id="path26"
               style="fill:#ffffff;fill-opacity:1" />
            <path
               class="cls-2"
               d="M346.46.52H319.69a.52.52,0,0,0-.53.53v31.5a.51.51,0,0,1-.52.52H294.49a.52.52,0,0,0-.53.53h0v.52l24.68,20.47V84.51a.52.52,0,0,0,.52.53h26.77a.52.52,0,0,0,.53-.53V.52Z"
               id="path28"
               style="fill:#ffffff;fill-opacity:1" />
            <path
               class="cls-2"
               d="M217.32,22.05h-8.4a.51.51,0,0,0-.52.52h0v39.9a.51.51,0,0,0,.52.52h8.93a20.74,20.74,0,0,0,20.47-20C237.8,31.5,228.35,22.05,217.32,22.05Z"
               id="path30"
               style="fill:#ffffff;fill-opacity:1" />
            <path
               class="cls-2"
               d="M352.23,1.57h0c0-.52,0-1,.53-1H358a.51.51,0,0,1,.52.53h0v.52a.52.52,0,0,1-.52.53h-1.58V7.35a.51.51,0,0,1-.52.52h-.53a.51.51,0,0,1-.52-.52h0V2.1h-1.58c-.52,0-1,0-1-.53Z"
               id="path32"
               style="fill:#ffffff;fill-opacity:1" />
            <path
               class="cls-2"
               d="M360.63.52h0l2.1,4.73h0L364.3.52a.51.51,0,0,1,.53-.52h1.57a.52.52,0,0,1,.53.52h0v6.3a.52.52,0,0,1-.53.53h-.52a.52.52,0,0,1-.53-.53h0V2.62h0l-1.57,4.73a.51.51,0,0,1-.53.52h-.52a.52.52,0,0,1-.53-.52l-1.57-4.73h0V7.35a.51.51,0,0,1-.52.52h-.53a.51.51,0,0,1-.52-.52h0V1.05a.52.52,0,0,1,.52-.53h1.05Z"
               id="path34"
               style="fill:#ffffff;fill-opacity:1" />
          </g>
        </g>
      </g>
    </g>
  </g>
</svg>
