<?xml version="1.0" encoding="UTF-8" standalone="no"?>
<svg
   xmlns:dc="http://purl.org/dc/elements/1.1/"
   xmlns:cc="http://creativecommons.org/ns#"
   xmlns:rdf="http://www.w3.org/1999/02/22-rdf-syntax-ns#"
   xmlns:svg="http://www.w3.org/2000/svg"
   xmlns="http://www.w3.org/2000/svg"
   xmlns:sodipodi="http://sodipodi.sourceforge.net/DTD/sodipodi-0.dtd"
   xmlns:inkscape="http://www.inkscape.org/namespaces/inkscape"
   viewBox="0 0 398.48 85.04"
   version="1.1"
   id="svg82"
   sodipodi:docname="logo_psr.svg"
   inkscape:version="0.92.2 (5c3e80d, 2017-08-06)">
  <metadata
     id="metadata86">
    <rdf:RDF>
      <cc:Work
         rdf:about="">
        <dc:format>image/svg+xml</dc:format>
        <dc:type
           rdf:resource="http://purl.org/dc/dcmitype/StillImage" />
      </cc:Work>
    </rdf:RDF>
  </metadata>
  <sodipodi:namedview
     pagecolor="#ffffff"
     bordercolor="#666666"
     borderopacity="1"
     objecttolerance="10"
     gridtolerance="10"
     guidetolerance="10"
     inkscape:pageopacity="0"
     inkscape:pageshadow="2"
     inkscape:window-width="1920"
     inkscape:window-height="1137"
     id="namedview84"
     showgrid="false"
     inkscape:zoom="0.89339488"
     inkscape:cx="199.24001"
     inkscape:cy="42.52"
     inkscape:window-x="-8"
     inkscape:window-y="122"
     inkscape:window-maximized="1"
     inkscape:current-layer="svg82" />
  <defs
     id="defs4">
    <style
       id="style2">.cls-1{opacity:0.9;isolation:isolate;}.cls-2{fill:#3dddc0;}</style>
  </defs>
  <title
     id="title6">Zasób 6</title>
  <g
     id="Warstwa_2"
     data-name="Warstwa 2"
     style="fill:#ffffff;fill-opacity:1">
    <g
       id="Warstwa_1-2"
       data-name="Warstwa 1"
       style="fill:#ffffff;fill-opacity:1">
      <g
         class="cls-1"
         id="g78"
         style="fill:#ffffff;fill-opacity:1">
        <rect
           class="cls-2"
           x="214.75"
           y="48.6"
           width="6.96"
           height="6.93"
           id="rect8"
           style="fill:#ffffff;fill-opacity:1" />
        <polygon
           class="cls-2"
           points="242.53 41.64 230.27 41.64 230.27 12.26 200.89 12.26 200.89 0 242.53 0 242.53 41.64"
           id="polygon10"
           style="fill:#ffffff;fill-opacity:1" />
        <polygon
           class="cls-2"
           points="180.03 34.71 192.29 34.71 192.29 64.13 221.71 64.13 221.71 76.38 180.03 76.38 180.03 34.71"
           id="polygon12"
           style="fill:#ffffff;fill-opacity:1" />
        <path
           class="cls-2"
           d="M200.89,41.64V34.71h20.82v6.93H200.89"
           id="path14"
           style="fill:#ffffff;fill-opacity:1" />
        <path
           class="cls-2"
           d="M221.71,27.78H200.89v-7h20.82Z"
           id="path16"
           style="fill:#ffffff;fill-opacity:1" />
        <path
           class="cls-2"
           d="M142.36,34.5H138V15.1l-2.27-.6V11.71h6.66L151,20.37h0l8.66-8.66h4.39V34.5h-4.39V17.92L151,26.57h0l-8.65-8.65ZM1.63,11.71H13c11,0,11.11,15.8,0,15.8H9V23.12h4c5.21,0,5.21-7,0-7H6V34.53H1.63V15L0,14.53V11.74H1.63Zm127.62,3.21-1.63-.42V11.71h6V23.64c0,15-20.85,15-20.85,0V11.71h4.39V23.64c0,9.26,12.07,9.26,12.07,0V14.92Zm-104.34,0-1.64-.42V11.71H36.32c9.56,0,10.89,11.9,3.81,15l4.48,7.78H39.52l-4-7H32.29V23.09h4c5.2,0,5.2-7,0-7h-7V34.5H24.91V14.92Zm24,0L47.3,14.5V11.71H67.37V16.1H53.32v4.81h9L61.1,25.3H53.32v4.81H67.37V34.5H48.94Zm23.45,0-1.63-.42V11.71h6l8.65,8.66,8.66-8.66h4.39V34.5H94.09V17.92l-8.66,8.65h0l-8.65-8.65V34.5H72.39Zm31.84,0-1.64-.42V11.71h6V34.53H104.2V14.92Z"
           id="path18"
           style="fill:#ffffff;fill-opacity:1" />
        <path
           class="cls-2"
           d="M276.12,41.46H265.68c-9.38,0-9.47,13.62,0,13.62h4.21c3.84,0,3.84,4.84,0,4.84H258.48v2.79l2.6,1.6h8.81a6.83,6.83,0,1,0,0-13.62h-4.21a2.43,2.43,0,1,1,0-4.84h10.44Zm76.32,4.42h0l-5,18.43h-4.33l-4.29-14.07L334.5,64.31h-4.33l-5.33-19.52L323,44.31V41.52h6.05l3.66,15.22,3.66-15.22h4.91l3.66,15.22,2.9-12.07-1.36-.36V41.52h7.17l-1.15,4.27v.09Zm26.33-1.15-1.63-.42V41.52h13c9.57,0,10.9,11.89,3.82,15l4.47,7.78h-5.08l-4.05-7h-3.18V52.93h4c5.21,0,5.21-7,0-7h-7v18.4h-4.39V44.73Zm-75.84,0-1.63-.42V41.52h13c9.57,0,10.9,11.89,3.82,15l4.48,7.78h-5.09l-4.05-7h-3.21V52.93h4c5.21,0,5.21-7,0-7h-7v18.4H302.9V44.73Zm53.54,0-1.63-.42V41.52H374.9v4.39h-14v4.78h9l-1.18,4.39h-7.78v4.81h14v4.42H356.47Zm-75.9,0-1.63-.42V41.52H299v4.39H285v4.78h9l-1.18,4.39H285v4.81h14v4.42H280.57Z"
           id="path20"
           style="fill:#ffffff;fill-opacity:1" />
        <polygon
           class="cls-2"
           points="258.51 76.32 263.5 76.32 263.5 76.99 261.38 76.99 261.38 82.68 260.63 82.68 260.63 76.99 258.51 76.99 258.51 76.32"
           id="polygon22"
           style="fill:#ffffff;fill-opacity:1" />
        <polygon
           class="cls-2"
           points="263.77 78.26 264.56 78.26 265.74 81.95 266.89 78.26 267.62 78.26 268.77 81.95 269.98 78.26 270.76 78.26 269.16 82.68 268.4 82.68 267.22 79.11 266.07 82.68 265.35 82.68 263.77 78.26"
           id="polygon24"
           style="fill:#ffffff;fill-opacity:1" />
        <path
           class="cls-2"
           d="M273.67,78.81a1.37,1.37,0,0,0-1,.42,1.56,1.56,0,0,0-.39,1.15,1.92,1.92,0,0,0,.39,1.24,1.28,1.28,0,0,0,1,.51,1.2,1.2,0,0,0,1-.45,1.67,1.67,0,0,0,.39-1.15,2.16,2.16,0,0,0-.12-.76,2.35,2.35,0,0,0-.33-.54,1.25,1.25,0,0,0-.46-.3,1,1,0,0,0-.51-.12m.09-.64a2,2,0,0,1,1.51.57,2.19,2.19,0,0,1,.61,1.61,2.41,2.41,0,0,1-.61,1.72,2,2,0,0,1-1.57.64,2,2,0,0,1-1.48-.61,2.16,2.16,0,0,1-.58-1.63,2.28,2.28,0,0,1,.61-1.7A1.88,1.88,0,0,1,273.76,78.17Z"
           id="path26"
           style="fill:#ffffff;fill-opacity:1" />
        <path
           class="cls-2"
           d="M277.21,78.26h.73v5.27a.75.75,0,0,1,0,.24.6.6,0,0,1-.06.27.84.84,0,0,1-.13.27,2.26,2.26,0,0,1-.21.28,2.62,2.62,0,0,1-.3.24,1.83,1.83,0,0,1-.42.21l-.28-.55a1.18,1.18,0,0,0,.73-1.15V78.26Zm-.06-1.94H278v.85h-.88Z"
           id="path28"
           style="fill:#ffffff;fill-opacity:1" />
        <path
           class="cls-2"
           d="M281.3,78.81a1,1,0,0,0-.67.21,1.47,1.47,0,0,0-.42.54,1.81,1.81,0,0,0-.12.7h2.3c0-1-.37-1.45-1.09-1.45m.15-.64a1.75,1.75,0,0,1,.57.09,1.57,1.57,0,0,1,.43.21,1.42,1.42,0,0,1,.3.3,1.14,1.14,0,0,1,.18.37c0,.12.06.27.09.42a2.48,2.48,0,0,1,0,.46v.78h-3a.9.9,0,0,0,.13.49,1.35,1.35,0,0,0,.3.42A1.67,1.67,0,0,0,281,82a1.87,1.87,0,0,0,.73.12,4.33,4.33,0,0,0,1-.15l.12.52a4.72,4.72,0,0,1-1.39.24,2.68,2.68,0,0,1-.88-.12,2.49,2.49,0,0,1-.61-.33,1.6,1.6,0,0,1-.36-.49,2.19,2.19,0,0,1-.21-.57,3.94,3.94,0,0,1-.06-.61,3,3,0,0,1,.12-.91,2.11,2.11,0,0,1,.33-.69,3.24,3.24,0,0,1,.49-.49,2,2,0,0,1,.57-.27A1.61,1.61,0,0,1,281.45,78.17Z"
           id="path30"
           style="fill:#ffffff;fill-opacity:1" />
        <path
           class="cls-2"
           d="M288.65,78.77a2.09,2.09,0,0,0-.94.25V82a2.18,2.18,0,0,0,1,.21,1.52,1.52,0,0,0,.39-.06,2.17,2.17,0,0,0,.4-.15,1.57,1.57,0,0,0,.33-.3,1.43,1.43,0,0,0,.24-.48,2.31,2.31,0,0,0,.09-.67,3.16,3.16,0,0,0-.09-.76,1.62,1.62,0,0,0-.24-.51.88.88,0,0,0-.36-.3,1.75,1.75,0,0,0-.4-.16,1.27,1.27,0,0,1-.39,0m.24-.6a2.85,2.85,0,0,1,.52.06,1.31,1.31,0,0,1,.51.24,1.42,1.42,0,0,1,.45.43,1.62,1.62,0,0,1,.31.63,2.84,2.84,0,0,1,.12.88,2.38,2.38,0,0,1-.58,1.72,1.89,1.89,0,0,1-1.48.64,2.72,2.72,0,0,1-1.06-.24V85H287V78.26h.52l.12.27A2.58,2.58,0,0,1,288.89,78.17Z"
           id="path32"
           style="fill:#ffffff;fill-opacity:1" />
        <path
           class="cls-2"
           d="M294.07,78.81a1.35,1.35,0,0,0-1,.42,1.58,1.58,0,0,0-.43,1.15,1.92,1.92,0,0,0,.4,1.24,1.27,1.27,0,0,0,1,.51,1.21,1.21,0,0,0,1-.45,1.67,1.67,0,0,0,.39-1.15,2.16,2.16,0,0,0-.12-.76,2.07,2.07,0,0,0-.34-.54,1.31,1.31,0,0,0-.45-.3.82.82,0,0,0-.48-.12m.06-.64a2.06,2.06,0,0,1,1.51.57,2.23,2.23,0,0,1,.61,1.61,2.45,2.45,0,0,1-.61,1.72,2.05,2.05,0,0,1-1.57.64,2,2,0,0,1-1.49-.61,2.19,2.19,0,0,1-.57-1.63,2.32,2.32,0,0,1,.6-1.7A2,2,0,0,1,294.13,78.17Z"
           id="path34"
           style="fill:#ffffff;fill-opacity:1" />
        <path
           class="cls-2"
           d="M300,82.59a3.7,3.7,0,0,1-1,.15,1.25,1.25,0,0,1-.61-.12.65.65,0,0,1-.36-.33,1.56,1.56,0,0,1-.18-.46,3,3,0,0,1-.06-.57V78.84h-.61v-.58h.61V77h.73v1.27h1.33v.58h-1.33v2.42q0,.9.72.9c.09,0,.3,0,.7-.09Z"
           id="path36"
           style="fill:#ffffff;fill-opacity:1" />
        <path
           class="cls-2"
           d="M301.72,78.59a2.08,2.08,0,0,1,1.24-.42,1.93,1.93,0,0,1,.85.18l-.21.58a2,2,0,0,0-.73-.12,2,2,0,0,0-1.06.3v3.57h-.72V78.26h.51Z"
           id="path38"
           style="fill:#ffffff;fill-opacity:1" />
        <polygon
           class="cls-2"
           points="304.51 78.26 307.87 78.26 307.87 78.65 305.45 82.1 307.99 82.1 307.99 82.68 304.51 82.68 304.51 82.28 306.9 78.83 304.51 78.83 304.51 78.26"
           id="polygon40"
           style="fill:#ffffff;fill-opacity:1" />
        <path
           class="cls-2"
           d="M311.2,78.81a1,1,0,0,0-.67.21,1.47,1.47,0,0,0-.42.54,1.81,1.81,0,0,0-.12.7h2.3c0-1-.37-1.45-1.09-1.45m.15-.64a1.75,1.75,0,0,1,.57.09,1.57,1.57,0,0,1,.43.21,1.42,1.42,0,0,1,.3.3,1.14,1.14,0,0,1,.18.37c0,.12.06.27.09.42s0,.3.06.46v.78h-3a1,1,0,0,0,.13.49,1.35,1.35,0,0,0,.3.42,1.67,1.67,0,0,0,.51.33,1.87,1.87,0,0,0,.73.12,4.33,4.33,0,0,0,1-.15l.12.52a4.72,4.72,0,0,1-1.39.24,2.68,2.68,0,0,1-.88-.12,2.49,2.49,0,0,1-.61-.33,1.6,1.6,0,0,1-.36-.49,2.19,2.19,0,0,1-.21-.57,3.94,3.94,0,0,1-.06-.61,3,3,0,0,1,.12-.91,2.11,2.11,0,0,1,.33-.69,3.78,3.78,0,0,1,.49-.49,2,2,0,0,1,.57-.27A1.39,1.39,0,0,1,311.35,78.17Z"
           id="path42"
           style="fill:#ffffff;fill-opacity:1" />
        <path
           class="cls-2"
           d="M316.07,78.77a2.2,2.2,0,0,0-.94.25v3a2.23,2.23,0,0,0,.94.21,1.52,1.52,0,0,0,.39-.06,2.08,2.08,0,0,0,.39-.15,1.41,1.41,0,0,0,.34-.3,1.43,1.43,0,0,0,.24-.48,2.31,2.31,0,0,0,.09-.67,3.16,3.16,0,0,0-.09-.76,1.62,1.62,0,0,0-.24-.51,1.13,1.13,0,0,0-.37-.3,1,1,0,0,0-.39-.15c-.12,0-.24,0-.36,0m-1.67-2.84h.73v2.54a2.46,2.46,0,0,1,1.18-.3,2.64,2.64,0,0,1,.51.06,1.29,1.29,0,0,1,.52.24,1.74,1.74,0,0,1,.45.4,1.77,1.77,0,0,1,.31.63,2.91,2.91,0,0,1,.12.91,2.38,2.38,0,0,1-.58,1.72,1.9,1.9,0,0,1-1.48.64,2.46,2.46,0,0,1-1.18-.3l-.09.21h-.52V75.93Z"
           id="path44"
           style="fill:#ffffff;fill-opacity:1" />
        <polygon
           class="cls-2"
           points="319.06 78.26 319.85 78.26 321.27 82.01 322.57 78.26 323.33 78.26 320.79 85.04 320 85.04 320.88 82.89 319.06 78.26"
           id="polygon46"
           style="fill:#ffffff;fill-opacity:1" />
        <polygon
           class="cls-2"
           points="326.33 78.26 327.11 78.26 328.29 81.95 329.41 78.26 330.14 78.26 331.32 81.95 332.53 78.26 333.29 78.26 331.68 82.68 330.96 82.68 329.78 79.11 328.63 82.68 327.87 82.68 326.33 78.26"
           id="polygon48"
           style="fill:#ffffff;fill-opacity:1" />
        <path
           class="cls-2"
           d="M336.86,78.26h.73v4.42h-.73Zm-.06-1.94h.88v.85h-.88Z"
           id="path50"
           style="fill:#ffffff;fill-opacity:1" />
        <path
           class="cls-2"
           d="M341.16,82.16a2,2,0,0,0,.93-.24V79a2.14,2.14,0,0,0-1-.22,1.33,1.33,0,0,0-.4,0,2.08,2.08,0,0,0-.39.15,1,1,0,0,0-.33.3,1.43,1.43,0,0,0-.25.48,2.53,2.53,0,0,0-.09.7,2.75,2.75,0,0,0,.09.73,2,2,0,0,0,.25.51.88.88,0,0,0,.36.3,1.29,1.29,0,0,0,.39.15c.15,0,.28,0,.4,0M339,80.53a3.55,3.55,0,0,1,.15-1,2.22,2.22,0,0,1,.45-.76,2.19,2.19,0,0,1,.67-.45,2.3,2.3,0,0,1,.82-.15,2.67,2.67,0,0,1,1.05.24V75.9h.73v6.75h-.51l-.12-.27a2.61,2.61,0,0,1-1.31.36,3.31,3.31,0,0,1-.54-.06,1.23,1.23,0,0,1-.52-.24,1.83,1.83,0,0,1-.75-1.06A2.32,2.32,0,0,1,339,80.53Z"
           id="path52"
           style="fill:#ffffff;fill-opacity:1" />
        <path
           class="cls-2"
           d="M346.24,78.81a1,1,0,0,0-.67.21,1.47,1.47,0,0,0-.42.54,1.81,1.81,0,0,0-.12.7h2.3c0-1-.36-1.45-1.09-1.45m.15-.64a1.81,1.81,0,0,1,.58.09,1.37,1.37,0,0,1,.42.21,1.42,1.42,0,0,1,.3.3,1.14,1.14,0,0,1,.18.37c0,.12.07.27.1.42a2.48,2.48,0,0,1,0,.46v.78h-3a1,1,0,0,0,.12.49,1.35,1.35,0,0,0,.3.42,1.72,1.72,0,0,0,.52.33,1.82,1.82,0,0,0,.72.12,4.18,4.18,0,0,0,1-.15l.12.52a4.62,4.62,0,0,1-1.39.24,2.76,2.76,0,0,1-.88-.12,2.25,2.25,0,0,1-.6-.33,1.6,1.6,0,0,1-.36-.49,1.92,1.92,0,0,1-.22-.57,3.94,3.94,0,0,1-.06-.61,3,3,0,0,1,.12-.91,2.12,2.12,0,0,1,.34-.69,3.7,3.7,0,0,1,.48-.49,1.93,1.93,0,0,1,.58-.27A1.57,1.57,0,0,1,346.39,78.17Z"
           id="path54"
           style="fill:#ffffff;fill-opacity:1" />
        <path
           class="cls-2"
           d="M351.84,80.71h-.73a2.35,2.35,0,0,0-.42.06,1.4,1.4,0,0,0-.42.12.58.58,0,0,0-.28.22.45.45,0,0,0-.12.33.67.67,0,0,0,.27.51,1.07,1.07,0,0,0,.67.21,1.3,1.3,0,0,0,1-.45v-1Zm-1-2.54a2.42,2.42,0,0,1,.85.12.9.9,0,0,1,.51.33,1.57,1.57,0,0,1,.27.49,1.68,1.68,0,0,1,.1.6v2.94h-.52l-.18-.39a1.8,1.8,0,0,1-1.24.48,1.62,1.62,0,0,1-1.06-.36,1.09,1.09,0,0,1-.42-.88,1.33,1.33,0,0,1,.09-.49.82.82,0,0,1,.27-.36,1.91,1.91,0,0,1,.42-.24,2.42,2.42,0,0,1,.55-.15,4.48,4.48,0,0,1,.63-.06,5.24,5.24,0,0,1,.7,0v-.64a1.52,1.52,0,0,0-.06-.27.47.47,0,0,0-.18-.24,1.21,1.21,0,0,0-.31-.18,1.15,1.15,0,0,0-.51-.07,4.15,4.15,0,0,0-1.18.22l-.12-.55A3.81,3.81,0,0,1,350.87,78.17Z"
           id="path56"
           style="fill:#ffffff;fill-opacity:1" />
        <rect
           class="cls-2"
           x="354.26"
           y="75.93"
           width="0.73"
           height="6.75"
           id="rect58"
           style="fill:#ffffff;fill-opacity:1" />
        <path
           class="cls-2"
           d="M356.68,78.26h.52l.15.36a3.39,3.39,0,0,1,1.54-.45,1.46,1.46,0,0,1,.64.12,1.08,1.08,0,0,1,.42.3,1.46,1.46,0,0,1,.24.43,3.14,3.14,0,0,1,.12.51,3,3,0,0,1,0,.55v2.63h-.72V80.05c0-.79-.34-1.15-1-1.15a2.94,2.94,0,0,0-1.18.33v3.48h-.73V78.26Z"
           id="path60"
           style="fill:#ffffff;fill-opacity:1" />
        <path
           class="cls-2"
           d="M363.67,78.81A1,1,0,0,0,363,79a1.4,1.4,0,0,0-.43.54,1.81,1.81,0,0,0-.12.7h2.3c0-1-.36-1.45-1.09-1.45m.15-.64a1.76,1.76,0,0,1,.58.09,1.37,1.37,0,0,1,.42.21,1.42,1.42,0,0,1,.3.3,1,1,0,0,1,.19.37c0,.12.06.27.09.42a2.48,2.48,0,0,1,0,.46v.78h-3a1,1,0,0,0,.12.49,1.35,1.35,0,0,0,.3.42,1.86,1.86,0,0,0,.52.33,1.83,1.83,0,0,0,.73.12,4.18,4.18,0,0,0,1-.15l.13.52a4.73,4.73,0,0,1-1.4.24,2.65,2.65,0,0,1-.87-.12,2.17,2.17,0,0,1-.61-.33,1.6,1.6,0,0,1-.36-.49,2.19,2.19,0,0,1-.21-.57,3,3,0,0,1-.07-.61,2.67,2.67,0,0,1,.13-.91,2.11,2.11,0,0,1,.33-.69,3.7,3.7,0,0,1,.48-.49,2,2,0,0,1,.58-.27A1.57,1.57,0,0,1,363.82,78.17Z"
           id="path62"
           style="fill:#ffffff;fill-opacity:1" />
        <path
           class="cls-2"
           d="M366.85,78.26h.73v5.27a.75.75,0,0,1,0,.24.6.6,0,0,1-.06.27,1.66,1.66,0,0,1-.13.27,2.26,2.26,0,0,1-.21.28,2.62,2.62,0,0,1-.3.24,1.83,1.83,0,0,1-.42.21l-.28-.55a1.18,1.18,0,0,0,.73-1.15V78.26Zm-.06-1.94h.88v.85h-.88Z"
           id="path64"
           style="fill:#ffffff;fill-opacity:1" />
        <path
           class="cls-2"
           d="M373.81,76.9a1.82,1.82,0,0,0-.45.06l-.31.18a.65.65,0,0,0-.15.24.76.76,0,0,0-.06.21v.67h1.48v.58h-1.48v3.81h-.72V78.84h-.64v-.58h.64v-.45a1.73,1.73,0,0,1,.18-.88,1.21,1.21,0,0,1,.51-.49,1.62,1.62,0,0,1,.79-.15,3.62,3.62,0,0,1,1.06.18l-.12.55a2.35,2.35,0,0,0-.73-.12"
           id="path66"
           style="fill:#ffffff;fill-opacity:1" />
        <path
           class="cls-2"
           d="M377.2,78.81a1.37,1.37,0,0,0-1,.42,1.57,1.57,0,0,0-.42,1.15,1.92,1.92,0,0,0,.39,1.24,1.28,1.28,0,0,0,1,.51,1.2,1.2,0,0,0,1-.45,1.67,1.67,0,0,0,.39-1.15,2.16,2.16,0,0,0-.12-.76,1.63,1.63,0,0,0-.33-.54,1.25,1.25,0,0,0-.46-.3,1,1,0,0,0-.48-.12m.06-.64a2,2,0,0,1,1.51.57,2.17,2.17,0,0,1,.58,1.61,2.41,2.41,0,0,1-.61,1.72,2.05,2.05,0,0,1-1.57.64,1.92,1.92,0,0,1-1.48-.61,2.16,2.16,0,0,1-.58-1.63,2.28,2.28,0,0,1,.61-1.7A2,2,0,0,1,377.26,78.17Z"
           id="path68"
           style="fill:#ffffff;fill-opacity:1" />
        <path
           class="cls-2"
           d="M381.38,78.59a2,2,0,0,1,1.24-.42,2,2,0,0,1,.84.18l-.21.58a2,2,0,0,0-.72-.12,1.94,1.94,0,0,0-1.06.3v3.57h-.73V78.26h.51Z"
           id="path70"
           style="fill:#ffffff;fill-opacity:1" />
        <path
           class="cls-2"
           d="M386.07,78.87a2.6,2.6,0,0,0-1,.33v3.48h-.73V78.26h.52l.15.36a3,3,0,0,1,1.39-.45,1.27,1.27,0,0,1,1.06.48,3.23,3.23,0,0,1,1.57-.48,1.68,1.68,0,0,1,.58.09,1.4,1.4,0,0,1,.42.24,1.65,1.65,0,0,1,.27.4,2.53,2.53,0,0,1,.15.51,3.7,3.7,0,0,1,0,.61v2.63h-.72V79.8a.45.45,0,0,0,0-.18,1.91,1.91,0,0,0-.06-.21,1.46,1.46,0,0,1-.09-.21c-.06-.06-.09-.15-.18-.18a.72.72,0,0,0-.25-.12,1.08,1.08,0,0,0-.33-.06,2.87,2.87,0,0,0-1.09.33,5.14,5.14,0,0,1,.06.85v2.6H387V79.68a1.8,1.8,0,0,0-.07-.27.94.94,0,0,0-.15-.3.65.65,0,0,0-.27-.21c-.18,0-.33,0-.48,0"
           id="path72"
           style="fill:#ffffff;fill-opacity:1" />
        <path
           class="cls-2"
           d="M392,78.26h.72v4.42H392ZM392,76.32h.85v.85H392Z"
           id="path74"
           style="fill:#ffffff;fill-opacity:1" />
        <path
           class="cls-2"
           d="M396.11,78.81a1,1,0,0,0-.66.21,1.61,1.61,0,0,0-.43.54,1.81,1.81,0,0,0-.12.7h2.3c0-1-.36-1.45-1.09-1.45m.16-.64a1.75,1.75,0,0,1,.57.09,1.37,1.37,0,0,1,.42.21,1.27,1.27,0,0,1,.31.3,1.14,1.14,0,0,1,.18.37c0,.12.06.27.09.42a2.48,2.48,0,0,1,0,.46v.78h-3a1,1,0,0,0,.12.49,1.39,1.39,0,0,0,.31.42,1.67,1.67,0,0,0,.51.33,1.87,1.87,0,0,0,.73.12,4.33,4.33,0,0,0,1-.15l.12.52a4.76,4.76,0,0,1-1.43.24,2.37,2.37,0,0,1-.84-.12,2.32,2.32,0,0,1-.61-.33,1.6,1.6,0,0,1-.36-.49,4.37,4.37,0,0,1-.21-.57,3.94,3.94,0,0,1-.06-.61,3,3,0,0,1,.12-.91,2.11,2.11,0,0,1,.33-.69,3.7,3.7,0,0,1,.48-.49,2.18,2.18,0,0,1,.58-.27A1.58,1.58,0,0,1,396.27,78.17Z"
           id="path76"
           style="fill:#ffffff;fill-opacity:1" />
      </g>
    </g>
  </g>
</svg>
